# xmcd
#
# Track frame offsets: 
#        150
#        11604
#        28582
#        39578
#        49860
#        67214
#        78564
#        93370
#        108872
#        122426
#        135940
#        148954
#        161368
#        173733
#
# Disc length: 2469 seconds
#
# Revision: 0
# Processed by: cddbd v1.5.2PL0 Copyright (c) Steve Scherf et al.
# Submitted via: ExactAudioCopy v0.95b4
#
DISCID=b409a30e
DTITLE=Kieran McGilligan - Both Sides Of Good Bye
DYEAR=2005
DGENRE=Country
TTITLE0=Take Me Back
TTITLE1=Both Sides Of Goodbye
TTITLE2=The Sunny Side Of The Mountain
TTITLE3=Don't We Have The Right
TTITLE4=Somewhere
TTITLE5=Poor Broke Mixed Up Mess Of A heart
TTITLE6=The Thorns Of Life
TTITLE7=Never Been This Far Before
TTITLE8=You Win Again
TTITLE9=Your Copper Will Grow Into Silver
TTITLE10=If I'm A Fool For Leaving
TTITLE11=Marie's Wedding
TTITLE12=They'll Never Take Her Love From Me
TTITLE13=Millie
EXTD=
EXTT0=
EXTT1=
EXTT2=
EXTT3=
EXTT4=
EXTT5=
EXTT6=
EXTT7=
EXTT8=
EXTT9=
EXTT10=
EXTT11=
EXTT12=
EXTT13=
PLAYORDER=
